<?xml version="1.0" encoding="utf-8"?>
<!-- Generator: Adobe Illustrator 25.0.0, SVG Export Plug-In . SVG Version: 6.00 Build 0)  -->
<svg version="1.1" id="Livello_1" xmlns="http://www.w3.org/2000/svg" xmlns:xlink="http://www.w3.org/1999/xlink" x="0px" y="0px"
	 width="409.2px" height="77.3px" viewBox="0 0 409.2 77.3" style="enable-background:new 0 0 409.2 77.3;" xml:space="preserve">
<style type="text/css">
	.st0{stroke:#000000;stroke-width:3.4224;stroke-miterlimit:10;}
	.st1{stroke:#000000;stroke-width:0.2139;stroke-miterlimit:10;}
	.st2{fill:#3AAA35;}
	.st3{fill:#E30613;}
</style>
<g>
	<path class="st0" d="M50.9,46.6h-4.5v-6.7c0-1.1,0-2-0.1-2.8c0-0.8-0.2-1.5-0.4-2c-0.2-0.6-0.6-1-1.1-1.4c-0.5-0.3-1.2-0.6-2.1-0.8
		c-0.9-0.2-2-0.3-3.4-0.4c-1.4-0.1-3-0.1-5-0.1H14.3v14.2H9.8V10.6h25.4c2.7,0,5.1,0.1,6.9,0.3c1.9,0.2,3.4,0.5,4.7,0.9
		c1.2,0.4,2.2,0.9,2.8,1.5c0.7,0.6,1.1,1.3,1.5,2c0.3,0.8,0.5,1.7,0.5,2.6c0.1,1,0.1,2,0.1,3.2c0,1.5-0.1,2.8-0.3,3.9
		c-0.2,1.1-0.6,2.1-1.1,2.9c-0.5,0.8-1.2,1.4-2,1.9c-0.8,0.5-1.9,0.8-3.1,1c1.2,0.2,2.2,0.5,3,1c0.7,0.5,1.3,1.1,1.7,1.8
		c0.4,0.7,0.7,1.6,0.8,2.7c0.1,1,0.2,2.2,0.2,3.5V46.6z M14.3,28.6h20.9c2,0,3.7,0,5-0.1c1.4-0.1,2.5-0.2,3.4-0.4
		c0.9-0.2,1.6-0.5,2.1-0.8c0.5-0.3,0.8-0.8,1.1-1.4c0.2-0.6,0.4-1.2,0.4-2c0-0.8,0.1-1.7,0.1-2.8c0-1,0-1.9-0.1-2.6
		c0-0.7-0.2-1.3-0.4-1.8c-0.2-0.5-0.6-0.9-1.1-1.2c-0.5-0.3-1.2-0.5-2.1-0.7c-0.9-0.2-2-0.3-3.4-0.3c-1.4,0-3-0.1-5-0.1H14.3V28.6z"
		/>
	<path class="st0" d="M60.6,46.6V10.6h26.9c2.7,0,5.1,0.2,6.9,0.5c1.9,0.3,3.4,0.8,4.7,1.5s2.2,1.5,2.8,2.5c0.7,1,1.1,2.1,1.5,3.5
		c0.3,1.3,0.5,2.8,0.5,4.5c0.1,1.7,0.1,3.5,0.1,5.6c0,2,0,3.9-0.1,5.6c-0.1,1.7-0.2,3.2-0.5,4.5c-0.3,1.3-0.8,2.5-1.5,3.5
		c-0.7,1-1.6,1.8-2.8,2.5s-2.8,1.1-4.7,1.5c-1.9,0.3-4.2,0.5-6.9,0.5H60.6z M87.5,42.8c2,0,3.7-0.1,5-0.2c1.4-0.1,2.5-0.3,3.4-0.7
		c0.9-0.3,1.6-0.8,2.1-1.5c0.5-0.6,0.8-1.5,1.1-2.5c0.2-1.1,0.4-2.3,0.4-3.9c0-1.5,0.1-3.4,0.1-5.5c0-2.1,0-4-0.1-5.5
		c0-1.5-0.2-2.8-0.4-3.9c-0.2-1.1-0.6-1.9-1.1-2.5c-0.5-0.6-1.2-1.1-2.1-1.5c-0.9-0.3-2-0.6-3.4-0.7c-1.4-0.1-3-0.2-5-0.2H65.1v28.4
		H87.5z"/>
	<path class="st0" d="M112.9,46.6V10.6h26.9c2.7,0,5.1,0.2,6.9,0.5c1.9,0.3,3.4,0.8,4.7,1.5c1.2,0.7,2.2,1.5,2.8,2.5
		c0.7,1,1.1,2.1,1.5,3.5c0.3,1.3,0.5,2.8,0.5,4.5c0.1,1.7,0.1,3.5,0.1,5.6c0,2,0,3.9-0.1,5.6c-0.1,1.7-0.2,3.2-0.5,4.5
		c-0.3,1.3-0.8,2.5-1.5,3.5c-0.7,1-1.6,1.8-2.8,2.5c-1.2,0.7-2.8,1.1-4.7,1.5c-1.9,0.3-4.2,0.5-6.9,0.5H112.9z M139.8,42.8
		c2,0,3.7-0.1,5-0.2c1.4-0.1,2.5-0.3,3.4-0.7c0.9-0.3,1.6-0.8,2.1-1.5c0.5-0.6,0.8-1.5,1.1-2.5c0.2-1.1,0.4-2.3,0.4-3.9
		c0-1.5,0.1-3.4,0.1-5.5c0-2.1,0-4-0.1-5.5c0-1.5-0.2-2.8-0.4-3.9c-0.2-1.1-0.6-1.9-1.1-2.5c-0.5-0.6-1.2-1.1-2.1-1.5
		c-0.9-0.3-2-0.6-3.4-0.7c-1.4-0.1-3-0.2-5-0.2h-22.4v28.4H139.8z"/>
</g>
<path class="st1" d="M16.1,67.1h-0.9v-1.4c0-0.2,0-0.4,0-0.6c0-0.2,0-0.3-0.1-0.4c0-0.1-0.1-0.2-0.2-0.3c-0.1-0.1-0.2-0.1-0.4-0.2
	c-0.2,0-0.4-0.1-0.7-0.1c-0.3,0-0.6,0-1,0H8.8v2.9H7.9v-7.2H13c0.6,0,1,0,1.4,0.1c0.4,0,0.7,0.1,0.9,0.2c0.2,0.1,0.4,0.2,0.6,0.3
	s0.2,0.3,0.3,0.4c0.1,0.2,0.1,0.3,0.1,0.5c0,0.2,0,0.4,0,0.6c0,0.3,0,0.6-0.1,0.8c0,0.2-0.1,0.4-0.2,0.6c-0.1,0.2-0.2,0.3-0.4,0.4
	c-0.2,0.1-0.4,0.2-0.6,0.2c0.3,0,0.5,0.1,0.6,0.2s0.3,0.2,0.3,0.4c0.1,0.2,0.1,0.3,0.2,0.5c0,0.2,0,0.4,0,0.7V67.1z M8.8,63.4H13
	c0.4,0,0.7,0,1,0c0.3,0,0.5,0,0.7-0.1s0.3-0.1,0.4-0.2c0.1-0.1,0.2-0.2,0.2-0.3c0-0.1,0.1-0.2,0.1-0.4s0-0.3,0-0.6
	c0-0.2,0-0.4,0-0.5s0-0.3-0.1-0.4c0-0.1-0.1-0.2-0.2-0.2c-0.1-0.1-0.2-0.1-0.4-0.1c-0.2,0-0.4-0.1-0.7-0.1c-0.3,0-0.6,0-1,0H8.8
	V63.4z"/>
<path class="st1" d="M18.5,67.1v-7.2h7.2v0.8h-6.3V63h6v0.8h-6v2.6h6.3v0.8H18.5z"/>
<path class="st1" d="M32.1,63c0.5,0,0.9,0,1.3,0.1c0.4,0,0.7,0.1,0.9,0.2c0.2,0.1,0.4,0.2,0.6,0.3c0.1,0.1,0.3,0.3,0.3,0.4
	c0.1,0.2,0.1,0.3,0.2,0.5c0,0.2,0,0.4,0,0.6c0,0.2,0,0.4-0.1,0.6c0,0.2-0.1,0.4-0.2,0.5c-0.1,0.2-0.2,0.3-0.4,0.4
	c-0.2,0.1-0.4,0.2-0.7,0.3c-0.3,0.1-0.6,0.2-1,0.2c-0.4,0-0.8,0.1-1.3,0.1h-1.2c-0.5,0-0.8,0-1.2-0.1c-0.3,0-0.6-0.1-0.9-0.2
	c-0.2-0.1-0.4-0.2-0.6-0.3c-0.2-0.1-0.3-0.2-0.4-0.4c-0.1-0.1-0.2-0.3-0.2-0.5s-0.1-0.4-0.1-0.6h0.9c0,0.3,0,0.5,0.1,0.7
	c0.1,0.2,0.2,0.3,0.4,0.4c0.2,0.1,0.4,0.1,0.7,0.2c0.3,0,0.7,0,1.1,0h1.2c0.5,0,1,0,1.3-0.1c0.3-0.1,0.6-0.1,0.8-0.2
	c0.2-0.1,0.4-0.3,0.4-0.4c0.1-0.2,0.1-0.4,0.1-0.6s0-0.5-0.1-0.6c-0.1-0.2-0.2-0.3-0.3-0.4c-0.2-0.1-0.4-0.2-0.7-0.2
	c-0.3,0-0.7-0.1-1.2-0.1h-1.2c-0.6,0-1,0-1.4-0.1c-0.4,0-0.7-0.1-1-0.2c-0.3-0.1-0.5-0.2-0.6-0.3c-0.2-0.1-0.3-0.2-0.4-0.4
	c-0.1-0.1-0.1-0.3-0.2-0.5c0-0.2,0-0.4,0-0.6c0-0.2,0-0.4,0.1-0.6c0-0.2,0.1-0.4,0.2-0.5c0.1-0.2,0.3-0.3,0.4-0.4
	c0.2-0.1,0.4-0.2,0.7-0.3c0.3-0.1,0.6-0.1,1-0.2c0.4,0,0.9-0.1,1.4-0.1h0.9c0.5,0,0.8,0,1.2,0c0.3,0,0.6,0.1,0.9,0.2
	c0.2,0.1,0.4,0.2,0.6,0.3c0.2,0.1,0.3,0.2,0.4,0.4c0.1,0.1,0.2,0.3,0.2,0.5c0,0.2,0.1,0.4,0.1,0.6h-0.9c0-0.3,0-0.5-0.1-0.7
	c-0.1-0.2-0.2-0.3-0.4-0.4c-0.2-0.1-0.4-0.1-0.7-0.2c-0.3,0-0.7,0-1.1,0h-0.9c-0.6,0-1.1,0-1.5,0.1c-0.4,0-0.7,0.1-0.9,0.2
	c-0.2,0.1-0.4,0.2-0.5,0.4c-0.1,0.2-0.1,0.4-0.1,0.6c0,0.2,0,0.3,0,0.4c0,0.1,0.1,0.2,0.1,0.3c0.1,0.1,0.2,0.2,0.3,0.2
	c0.1,0.1,0.3,0.1,0.5,0.2c0.2,0,0.4,0.1,0.7,0.1c0.3,0,0.6,0,1,0H32.1z"/>
<path class="st1" d="M37.6,67.1v-7.2h7.2v0.8h-6.3V63h6v0.8h-6v2.6h6.3v0.8H37.6z"/>
<path class="st1" d="M53.7,65.4H48l-0.9,1.7h-1l4.1-7.2h1.3l4.1,7.2h-0.9L53.7,65.4z M53.2,64.7l-2.4-4.2l-2.4,4.2H53.2z"/>
<path class="st1" d="M65.8,67.1h-0.9v-1.4c0-0.2,0-0.4,0-0.6c0-0.2,0-0.3-0.1-0.4c0-0.1-0.1-0.2-0.2-0.3c-0.1-0.1-0.2-0.1-0.4-0.2
	c-0.2,0-0.4-0.1-0.7-0.1c-0.3,0-0.6,0-1,0h-4.1v2.9h-0.9v-7.2h5.1c0.6,0,1,0,1.4,0.1c0.4,0,0.7,0.1,0.9,0.2s0.4,0.2,0.6,0.3
	c0.1,0.1,0.2,0.3,0.3,0.4c0.1,0.2,0.1,0.3,0.1,0.5c0,0.2,0,0.4,0,0.6c0,0.3,0,0.6-0.1,0.8c0,0.2-0.1,0.4-0.2,0.6
	c-0.1,0.2-0.2,0.3-0.4,0.4c-0.2,0.1-0.4,0.2-0.6,0.2c0.3,0,0.5,0.1,0.6,0.2c0.2,0.1,0.3,0.2,0.3,0.4c0.1,0.2,0.1,0.3,0.2,0.5
	c0,0.2,0,0.4,0,0.7V67.1z M58.4,63.4h4.2c0.4,0,0.7,0,1,0c0.3,0,0.5,0,0.7-0.1c0.2,0,0.3-0.1,0.4-0.2c0.1-0.1,0.2-0.2,0.2-0.3
	c0-0.1,0.1-0.2,0.1-0.4c0-0.2,0-0.3,0-0.6c0-0.2,0-0.4,0-0.5c0-0.1,0-0.3-0.1-0.4c0-0.1-0.1-0.2-0.2-0.2c-0.1-0.1-0.2-0.1-0.4-0.1
	c-0.2,0-0.4-0.1-0.7-0.1c-0.3,0-0.6,0-1,0h-4.2V63.4z"/>
<path class="st1" d="M75.7,62.1c0-0.4,0-0.7-0.1-0.9c-0.1-0.2-0.2-0.4-0.4-0.5c-0.2-0.1-0.4-0.2-0.7-0.2c-0.3,0-0.7,0-1.1,0h-2.1
	c-0.4,0-0.7,0-1,0c-0.3,0-0.5,0.1-0.7,0.1c-0.2,0.1-0.3,0.2-0.4,0.3c-0.1,0.1-0.2,0.3-0.2,0.5c0,0.2-0.1,0.5-0.1,0.8
	c0,0.3,0,0.7,0,1.2c0,0.5,0,0.8,0,1.2c0,0.3,0,0.6,0.1,0.8c0,0.2,0.1,0.4,0.2,0.5c0.1,0.1,0.2,0.2,0.4,0.3c0.2,0.1,0.4,0.1,0.7,0.1
	c0.3,0,0.6,0,1,0h2.1c0.4,0,0.7,0,0.9,0s0.5-0.1,0.6-0.1c0.2-0.1,0.3-0.1,0.4-0.2c0.1-0.1,0.2-0.2,0.3-0.3c0.1-0.1,0.1-0.3,0.1-0.5
	c0-0.2,0-0.4,0-0.7h0.9c0,0.3,0,0.6-0.1,0.8c0,0.2-0.1,0.5-0.2,0.6c-0.1,0.2-0.2,0.4-0.4,0.5c-0.2,0.1-0.4,0.3-0.6,0.3
	c-0.2,0.1-0.5,0.2-0.9,0.2c-0.3,0-0.7,0.1-1.2,0.1h-2.1c-0.6,0-1,0-1.4-0.1c-0.4-0.1-0.7-0.2-0.9-0.3c-0.2-0.1-0.4-0.3-0.6-0.5
	c-0.1-0.2-0.2-0.4-0.3-0.7c-0.1-0.3-0.1-0.6-0.1-0.9c0-0.4,0-0.7,0-1.2c0-0.4,0-0.8,0-1.2c0-0.4,0-0.7,0.1-0.9
	c0.1-0.3,0.2-0.5,0.3-0.7c0.1-0.2,0.3-0.4,0.6-0.5c0.2-0.1,0.6-0.2,0.9-0.3c0.4-0.1,0.8-0.1,1.4-0.1h2.1c0.5,0,0.8,0,1.2,0.1
	c0.3,0,0.6,0.1,0.9,0.2c0.2,0.1,0.4,0.2,0.6,0.3c0.2,0.1,0.3,0.3,0.4,0.5c0.1,0.2,0.2,0.4,0.2,0.6c0,0.2,0.1,0.5,0.1,0.8H75.7z"/>
<path class="st1" d="M86.2,59.8h0.9v7.2h-0.9v-3.3h-6.6v3.3h-0.9v-7.2h0.9V63h6.6V59.8z"/>
<path class="st1" d="M99.4,65.4h-5.6l-0.9,1.7h-1l4.1-7.2h1.3l4.1,7.2h-0.9L99.4,65.4z M99,64.7l-2.4-4.2l-2.4,4.2H99z"/>
<path class="st1" d="M104.2,67.1h-0.9v-7.2h1.6l6.6,6.3v-6.3h0.9v7.2h-1.2l-7-6.5V67.1z"/>
<path class="st1" d="M114.9,67.1v-7.2h5.4c0.6,0,1,0,1.4,0.1c0.4,0.1,0.7,0.2,0.9,0.3c0.2,0.1,0.4,0.3,0.6,0.5
	c0.1,0.2,0.2,0.4,0.3,0.7c0.1,0.3,0.1,0.6,0.1,0.9c0,0.3,0,0.7,0,1.1c0,0.4,0,0.8,0,1.1c0,0.3,0,0.6-0.1,0.9
	c-0.1,0.3-0.2,0.5-0.3,0.7c-0.1,0.2-0.3,0.4-0.6,0.5c-0.2,0.1-0.6,0.2-0.9,0.3c-0.4,0.1-0.8,0.1-1.4,0.1H114.9z M120.3,66.3
	c0.4,0,0.7,0,1,0c0.3,0,0.5-0.1,0.7-0.1s0.3-0.2,0.4-0.3c0.1-0.1,0.2-0.3,0.2-0.5c0-0.2,0.1-0.5,0.1-0.8c0-0.3,0-0.7,0-1.1
	c0-0.4,0-0.8,0-1.1c0-0.3,0-0.6-0.1-0.8c0-0.2-0.1-0.4-0.2-0.5c-0.1-0.1-0.2-0.2-0.4-0.3s-0.4-0.1-0.7-0.1c-0.3,0-0.6,0-1,0h-4.5
	v5.7H120.3z"/>
<path class="st1" d="M128.6,67.1v-7.2h5.4c0.6,0,1,0,1.4,0.1c0.4,0.1,0.7,0.2,0.9,0.3c0.2,0.1,0.4,0.3,0.6,0.5
	c0.1,0.2,0.2,0.4,0.3,0.7c0.1,0.3,0.1,0.6,0.1,0.9c0,0.3,0,0.7,0,1.1c0,0.4,0,0.8,0,1.1c0,0.3,0,0.6-0.1,0.9
	c-0.1,0.3-0.2,0.5-0.3,0.7c-0.1,0.2-0.3,0.4-0.6,0.5s-0.6,0.2-0.9,0.3c-0.4,0.1-0.8,0.1-1.4,0.1H128.6z M134,66.3c0.4,0,0.7,0,1,0
	c0.3,0,0.5-0.1,0.7-0.1c0.2-0.1,0.3-0.2,0.4-0.3c0.1-0.1,0.2-0.3,0.2-0.5c0-0.2,0.1-0.5,0.1-0.8c0-0.3,0-0.7,0-1.1
	c0-0.4,0-0.8,0-1.1c0-0.3,0-0.6-0.1-0.8c0-0.2-0.1-0.4-0.2-0.5c-0.1-0.1-0.2-0.2-0.4-0.3c-0.2-0.1-0.4-0.1-0.7-0.1c-0.3,0-0.6,0-1,0
	h-4.5v5.7H134z"/>
<path class="st1" d="M139.5,67.1v-7.2h7.2v0.8h-6.3V63h6v0.8h-6v2.6h6.3v0.8H139.5z"/>
<path class="st1" d="M155.9,59.8h0.9l-3.8,7.2h-1.3l-3.8-7.2h1l3.5,6.6L155.9,59.8z"/>
<path class="st1" d="M158.9,67.1v-7.2h7.2v0.8h-6.3V63h6v0.8h-6v2.6h6.3v0.8H158.9z"/>
<path class="st1" d="M168,67.1v-7.2h0.9v6.5h5.7v0.8H168z"/>
<path class="st1" d="M182.2,59.7c0.6,0,1,0,1.4,0.1c0.4,0.1,0.7,0.2,0.9,0.3c0.2,0.1,0.4,0.3,0.6,0.5s0.2,0.4,0.3,0.7
	c0.1,0.3,0.1,0.6,0.1,0.9c0,0.4,0,0.7,0,1.2c0,0.4,0,0.8,0,1.2c0,0.4,0,0.7-0.1,0.9c-0.1,0.3-0.2,0.5-0.3,0.7
	c-0.1,0.2-0.3,0.4-0.6,0.5c-0.2,0.1-0.6,0.2-0.9,0.3c-0.4,0.1-0.8,0.1-1.4,0.1h-2.7c-0.6,0-1,0-1.4-0.1c-0.4-0.1-0.7-0.2-0.9-0.3
	c-0.2-0.1-0.4-0.3-0.6-0.5c-0.1-0.2-0.2-0.4-0.3-0.7c-0.1-0.3-0.1-0.6-0.1-0.9c0-0.4,0-0.7,0-1.2c0-0.4,0-0.8,0-1.2
	c0-0.4,0-0.7,0.1-0.9c0.1-0.3,0.2-0.5,0.3-0.7c0.1-0.2,0.3-0.4,0.6-0.5c0.2-0.1,0.6-0.2,0.9-0.3s0.8-0.1,1.4-0.1H182.2z M182.2,66.5
	c0.4,0,0.7,0,1,0c0.3,0,0.5-0.1,0.7-0.1c0.2-0.1,0.3-0.2,0.4-0.3c0.1-0.1,0.2-0.3,0.2-0.5c0-0.2,0.1-0.5,0.1-0.8c0-0.3,0-0.7,0-1.2
	c0-0.5,0-0.8,0-1.2c0-0.3,0-0.6-0.1-0.8c0-0.2-0.1-0.4-0.2-0.5c-0.1-0.1-0.2-0.2-0.4-0.3c-0.2-0.1-0.4-0.1-0.7-0.1c-0.3,0-0.6,0-1,0
	h-2.7c-0.4,0-0.7,0-1,0c-0.3,0-0.5,0.1-0.7,0.1c-0.2,0.1-0.3,0.2-0.4,0.3c-0.1,0.1-0.2,0.3-0.2,0.5c0,0.2-0.1,0.5-0.1,0.8
	c0,0.3,0,0.7,0,1.2c0,0.5,0,0.8,0,1.2c0,0.3,0,0.6,0.1,0.8c0,0.2,0.1,0.4,0.2,0.5c0.1,0.1,0.2,0.2,0.4,0.3c0.2,0.1,0.4,0.1,0.7,0.1
	c0.3,0,0.6,0,1,0H182.2z"/>
<path class="st1" d="M187.7,59.8h5.4c0.4,0,0.8,0,1.1,0.1c0.3,0,0.6,0.1,0.8,0.2c0.2,0.1,0.4,0.2,0.5,0.3c0.1,0.1,0.2,0.3,0.2,0.4
	c0.1,0.2,0.1,0.3,0.1,0.5c0,0.2,0,0.4,0,0.6c0,0.2,0,0.5,0,0.7c0,0.2,0,0.4-0.1,0.6c-0.1,0.2-0.2,0.3-0.3,0.4
	c-0.1,0.1-0.3,0.2-0.6,0.3c-0.2,0.1-0.6,0.1-0.9,0.2s-0.8,0.1-1.4,0.1h-3.9v2.9h-0.9V59.8z M188.6,63.4h3.9c0.4,0,0.7,0,1,0
	c0.3,0,0.5,0,0.7-0.1c0.2,0,0.3-0.1,0.4-0.2c0.1-0.1,0.2-0.2,0.2-0.3c0-0.1,0.1-0.2,0.1-0.4c0-0.2,0-0.3,0-0.6c0-0.2,0-0.4,0-0.5
	c0-0.1,0-0.3-0.1-0.4c0-0.1-0.1-0.2-0.2-0.2c-0.1-0.1-0.2-0.1-0.4-0.1c-0.2,0-0.4-0.1-0.7-0.1c-0.3,0-0.6,0-1,0h-3.9V63.4z"/>
<path class="st1" d="M199,60.4v6.6h-0.9v-7.2h1.5l4.2,6.3l4.2-6.3h1.5v7.2h-0.9v-6.5l-4.3,6.5h-0.9L199,60.4z"/>
<path class="st1" d="M211.9,67.1v-7.2h7.2v0.8h-6.3V63h6v0.8h-6v2.6h6.3v0.8H211.9z"/>
<path class="st1" d="M221.9,67.1H221v-7.2h1.6l6.6,6.3v-6.3h0.9v7.2h-1.2l-7-6.5V67.1z"/>
<path class="st1" d="M240.4,59.8v0.8h-3.6v6.5h-0.9v-6.5h-3.6v-0.8H240.4z"/>
<path class="st1" d="M251.1,59.7c0.6,0,1,0,1.4,0.1s0.7,0.2,0.9,0.3c0.2,0.1,0.4,0.3,0.6,0.5c0.1,0.2,0.2,0.4,0.3,0.7
	c0.1,0.3,0.1,0.6,0.1,0.9c0,0.4,0,0.7,0,1.2c0,0.4,0,0.8,0,1.2c0,0.4,0,0.7-0.1,0.9c-0.1,0.3-0.2,0.5-0.3,0.7
	c-0.1,0.2-0.3,0.4-0.6,0.5c-0.2,0.1-0.6,0.2-0.9,0.3c-0.4,0.1-0.8,0.1-1.4,0.1h-2.7c-0.6,0-1,0-1.4-0.1c-0.4-0.1-0.7-0.2-0.9-0.3
	c-0.2-0.1-0.4-0.3-0.6-0.5c-0.1-0.2-0.2-0.4-0.3-0.7c-0.1-0.3-0.1-0.6-0.1-0.9c0-0.4,0-0.7,0-1.2c0-0.4,0-0.8,0-1.2
	c0-0.4,0-0.7,0.1-0.9c0.1-0.3,0.2-0.5,0.3-0.7c0.1-0.2,0.3-0.4,0.6-0.5c0.2-0.1,0.6-0.2,0.9-0.3s0.8-0.1,1.4-0.1H251.1z M251.1,66.5
	c0.4,0,0.7,0,1,0c0.3,0,0.5-0.1,0.7-0.1c0.2-0.1,0.3-0.2,0.4-0.3c0.1-0.1,0.2-0.3,0.2-0.5c0-0.2,0.1-0.5,0.1-0.8c0-0.3,0-0.7,0-1.2
	c0-0.5,0-0.8,0-1.2c0-0.3,0-0.6-0.1-0.8c0-0.2-0.1-0.4-0.2-0.5c-0.1-0.1-0.2-0.2-0.4-0.3c-0.2-0.1-0.4-0.1-0.7-0.1c-0.3,0-0.6,0-1,0
	h-2.7c-0.4,0-0.7,0-1,0c-0.3,0-0.5,0.1-0.7,0.1c-0.2,0.1-0.3,0.2-0.4,0.3c-0.1,0.1-0.2,0.3-0.2,0.5c0,0.2-0.1,0.5-0.1,0.8
	c0,0.3,0,0.7,0,1.2c0,0.5,0,0.8,0,1.2c0,0.3,0,0.6,0.1,0.8c0,0.2,0.1,0.4,0.2,0.5c0.1,0.1,0.2,0.2,0.4,0.3c0.2,0.1,0.4,0.1,0.7,0.1
	c0.3,0,0.6,0,1,0H251.1z"/>
<path class="st1" d="M256.6,67.1v-7.2h6.9v0.8h-6V63h5.7v0.8h-5.7v3.3H256.6z"/>
<path class="st1" d="M268.2,59.8h0.9v7.2h-0.9V59.8z"/>
<path class="st1" d="M279.3,59.8v0.8h-3.6v6.5h-0.9v-6.5h-3.6v-0.8H279.3z"/>
<path class="st1" d="M286.2,65.4h-5.6l-0.9,1.7h-1l4.1-7.2h1.3l4.1,7.2h-0.9L286.2,65.4z M285.7,64.7l-2.4-4.2l-2.4,4.2H285.7z"/>
<path class="st1" d="M290,67.1v-7.2h0.9v6.5h5.7v0.8H290z"/>
<path class="st1" d="M298.5,59.8h0.9v7.2h-0.9V59.8z"/>
<path class="st1" d="M308.9,65.4h-5.6l-0.9,1.7h-1l4.1-7.2h1.3l4.1,7.2h-0.9L308.9,65.4z M308.5,64.7l-2.4-4.2l-2.4,4.2H308.5z"/>
<path class="st1" d="M313.7,67.1h-0.9v-7.2h1.6l6.6,6.3v-6.3h0.9v7.2h-1.2l-7-6.5V67.1z"/>
<path class="st1" d="M327.2,67.1v-7.2h5.4c0.6,0,1,0,1.4,0.1c0.4,0.1,0.7,0.2,0.9,0.3c0.2,0.1,0.4,0.3,0.6,0.5
	c0.1,0.2,0.2,0.4,0.3,0.7c0.1,0.3,0.1,0.6,0.1,0.9c0,0.3,0,0.7,0,1.1c0,0.4,0,0.8,0,1.1c0,0.3,0,0.6-0.1,0.9
	c-0.1,0.3-0.2,0.5-0.3,0.7c-0.1,0.2-0.3,0.4-0.6,0.5c-0.2,0.1-0.6,0.2-0.9,0.3c-0.4,0.1-0.8,0.1-1.4,0.1H327.2z M332.6,66.3
	c0.4,0,0.7,0,1,0c0.3,0,0.5-0.1,0.7-0.1c0.2-0.1,0.3-0.2,0.4-0.3c0.1-0.1,0.2-0.3,0.2-0.5c0-0.2,0.1-0.5,0.1-0.8c0-0.3,0-0.7,0-1.1
	c0-0.4,0-0.8,0-1.1c0-0.3,0-0.6-0.1-0.8c0-0.2-0.1-0.4-0.2-0.5c-0.1-0.1-0.2-0.2-0.4-0.3c-0.2-0.1-0.4-0.1-0.7-0.1c-0.3,0-0.6,0-1,0
	h-4.5v5.7H332.6z"/>
<path class="st1" d="M338.1,67.1v-7.2h7.2v0.8H339V63h6v0.8h-6v2.6h6.3v0.8H338.1z"/>
<path class="st1" d="M351.7,63c0.5,0,0.9,0,1.3,0.1c0.4,0,0.7,0.1,0.9,0.2c0.2,0.1,0.4,0.2,0.6,0.3c0.1,0.1,0.3,0.3,0.3,0.4
	c0.1,0.2,0.1,0.3,0.2,0.5c0,0.2,0,0.4,0,0.6c0,0.2,0,0.4-0.1,0.6c0,0.2-0.1,0.4-0.2,0.5c-0.1,0.2-0.2,0.3-0.4,0.4
	c-0.2,0.1-0.4,0.2-0.7,0.3c-0.3,0.1-0.6,0.2-1,0.2s-0.8,0.1-1.3,0.1h-1.2c-0.5,0-0.8,0-1.2-0.1c-0.3,0-0.6-0.1-0.9-0.2
	c-0.2-0.1-0.4-0.2-0.6-0.3c-0.2-0.1-0.3-0.2-0.4-0.4c-0.1-0.1-0.2-0.3-0.2-0.5s-0.1-0.4-0.1-0.6h0.9c0,0.3,0,0.5,0.1,0.7
	c0.1,0.2,0.2,0.3,0.4,0.4c0.2,0.1,0.4,0.1,0.7,0.2c0.3,0,0.7,0,1.1,0h1.2c0.5,0,1,0,1.3-0.1c0.3-0.1,0.6-0.1,0.8-0.2
	c0.2-0.1,0.4-0.3,0.4-0.4c0.1-0.2,0.1-0.4,0.1-0.6s0-0.5-0.1-0.6c-0.1-0.2-0.2-0.3-0.3-0.4c-0.2-0.1-0.4-0.2-0.7-0.2
	c-0.3,0-0.7-0.1-1.2-0.1h-1.2c-0.6,0-1,0-1.4-0.1c-0.4,0-0.7-0.1-1-0.2c-0.3-0.1-0.5-0.2-0.6-0.3c-0.2-0.1-0.3-0.2-0.4-0.4
	c-0.1-0.1-0.1-0.3-0.2-0.5c0-0.2,0-0.4,0-0.6c0-0.2,0-0.4,0.1-0.6s0.1-0.4,0.2-0.5c0.1-0.2,0.3-0.3,0.4-0.4c0.2-0.1,0.4-0.2,0.7-0.3
	c0.3-0.1,0.6-0.1,1-0.2c0.4,0,0.9-0.1,1.4-0.1h0.9c0.5,0,0.8,0,1.2,0c0.3,0,0.6,0.1,0.9,0.2c0.2,0.1,0.4,0.2,0.6,0.3
	c0.2,0.1,0.3,0.2,0.4,0.4c0.1,0.1,0.2,0.3,0.2,0.5c0,0.2,0.1,0.4,0.1,0.6h-0.9c0-0.3,0-0.5-0.1-0.7c-0.1-0.2-0.2-0.3-0.4-0.4
	c-0.2-0.1-0.4-0.1-0.7-0.2c-0.3,0-0.7,0-1.1,0h-0.9c-0.6,0-1.1,0-1.5,0.1c-0.4,0-0.7,0.1-0.9,0.2c-0.2,0.1-0.4,0.2-0.5,0.4
	c-0.1,0.2-0.1,0.4-0.1,0.6c0,0.2,0,0.3,0,0.4c0,0.1,0.1,0.2,0.1,0.3c0.1,0.1,0.2,0.2,0.3,0.2c0.1,0.1,0.3,0.1,0.5,0.2
	c0.2,0,0.4,0.1,0.7,0.1c0.3,0,0.6,0,1,0H351.7z"/>
<path class="st1" d="M357.2,59.8h0.9v7.2h-0.9V59.8z"/>
<path class="st1" d="M368.4,62.1c0-0.4,0-0.7-0.1-0.9c-0.1-0.2-0.2-0.4-0.4-0.5c-0.2-0.1-0.4-0.2-0.7-0.2c-0.3,0-0.7,0-1.1,0h-2.4
	c-0.4,0-0.7,0-1,0c-0.3,0-0.5,0.1-0.7,0.1c-0.2,0.1-0.3,0.2-0.4,0.3c-0.1,0.1-0.2,0.3-0.2,0.5c0,0.2-0.1,0.5-0.1,0.8
	c0,0.3,0,0.7,0,1.2c0,0.5,0,0.8,0,1.2c0,0.3,0,0.6,0.1,0.8c0,0.2,0.1,0.4,0.2,0.5c0.1,0.1,0.2,0.2,0.4,0.3c0.2,0.1,0.4,0.1,0.7,0.1
	c0.3,0,0.6,0,1,0h2.4c0.4,0,0.7,0,0.9,0c0.3,0,0.5-0.1,0.6-0.1c0.2-0.1,0.3-0.1,0.4-0.2c0.1-0.1,0.2-0.2,0.3-0.3
	c0.1-0.1,0.1-0.3,0.1-0.5c0-0.2,0-0.4,0-0.7v-0.5h-3.6v-0.8h4.5v1.2c0,0.3,0,0.6-0.1,0.8c0,0.2-0.1,0.5-0.2,0.6
	c-0.1,0.2-0.2,0.4-0.4,0.5c-0.2,0.1-0.4,0.3-0.6,0.3c-0.2,0.1-0.5,0.2-0.9,0.2c-0.3,0-0.7,0.1-1.2,0.1h-2.4c-0.6,0-1,0-1.4-0.1
	c-0.4-0.1-0.7-0.2-0.9-0.3c-0.2-0.1-0.4-0.3-0.6-0.5c-0.1-0.2-0.2-0.4-0.3-0.7c-0.1-0.3-0.1-0.6-0.1-0.9c0-0.4,0-0.7,0-1.2
	c0-0.4,0-0.8,0-1.2c0-0.4,0-0.7,0.1-0.9c0.1-0.3,0.2-0.5,0.3-0.7s0.3-0.4,0.6-0.5c0.2-0.1,0.6-0.2,0.9-0.3s0.8-0.1,1.4-0.1h2.4
	c0.5,0,0.8,0,1.2,0.1c0.3,0,0.6,0.1,0.9,0.2s0.4,0.2,0.6,0.3s0.3,0.3,0.4,0.5c0.1,0.2,0.2,0.4,0.2,0.6c0,0.2,0.1,0.5,0.1,0.8H368.4z
	"/>
<path class="st1" d="M372.3,67.1h-0.9v-7.2h1.6l6.6,6.3v-6.3h0.9v7.2h-1.2l-7-6.5V67.1z"/>
<rect x="388.7" y="9.9" class="st2" width="12.7" height="17.1"/>
<rect x="388.7" y="50.3" class="st3" width="12.7" height="17.1"/>
<polygon class="st3" points="339.7,38.9 363.5,38.9 360.3,34.6 339.7,34.6 "/>
<polygon class="st2" points="264.6,38.9 240.8,38.9 244,34.6 264.6,34.6 "/>
<path d="M177,10.6h4.5v35.9H177V10.6z"/>
<path d="M230.8,10.6v3.7h-18v32.2h-4.5V14.4h-18v-3.7H230.8z"/>
<path d="M248.7,13.6l-14.1,24.7l-4.7,8.2h-5.2l20.5-35.9h6.4l20.4,35.9h-4.7L248.7,13.6z M248.7,13.6L248.7,13.6L248.7,13.6
	L248.7,13.6z"/>
<path d="M280,46.6V10.6h4.5v32.2h28.4v3.7H280z"/>
<path d="M320.3,10.6h4.5v35.9h-4.5V10.6z"/>
<path d="M356.1,13.6l-14.1,24.7l-4.7,8.2h-5.2l20.5-35.9h6.4l20.4,35.9h-4.7L356.1,13.6z M356.1,13.6L356.1,13.6l-11.9,21
	L356.1,13.6z"/>
</svg>
